<svg width="40" height="40" viewBox="0 0 40 40" fill="none" xmlns="http://www.w3.org/2000/svg">
<g clip-path="url(#clip0_2020_322)">
<path d="M14.6913 13.5626H12.0282V19.4709H14.6561C15.3792 19.4709 15.9435 19.224 16.3492 18.7478C16.7548 18.2716 16.9488 17.5838 16.9488 16.6667C16.9488 15.7496 16.7372 14.9736 16.3315 14.4092C15.9259 13.8448 15.3792 13.5626 14.6913 13.5626Z" fill="white"/>
<path d="M0 3.77425V36.2081C0 38.2892 1.69312 39.9824 3.77425 39.9824H36.2081C38.2892 39.9824 39.9824 38.2892 39.9824 36.2081V3.77425C39.9824 1.69312 38.2892 0 36.2081 0H3.77425C1.69312 0 0 1.69312 0 3.77425ZM19.1534 21.0406C18.06 22.1164 16.5256 22.6631 14.5679 22.6631H12.0106V29.3298H8.18342V10.3704H14.6384C16.5079 10.3704 18.0071 10.9524 19.1182 12.1164C20.2293 13.2804 20.7936 14.7972 20.7936 16.649C20.7936 18.5009 20.2469 19.9647 19.1358 21.0582L19.1534 21.0406ZM31.5697 28.448C30.6173 29.2063 29.3827 29.5944 27.8483 29.5944C26.8078 29.5944 25.9083 29.4004 25.1146 28.9947C24.321 28.5891 23.7037 28.0247 23.2628 27.3016C22.8219 26.5785 22.5926 25.8025 22.5926 24.9735H26.1023C26.1199 25.6085 26.261 26.1023 26.5432 26.4198C26.8254 26.7372 27.2839 26.8959 27.9365 26.8959C28.9242 26.8959 29.418 26.455 29.418 25.5556C29.418 25.2381 29.2769 24.9559 28.9771 24.6914C28.6772 24.4268 28.0071 24.0741 26.9841 23.6155C25.4674 22.9982 24.4268 22.3633 23.8448 21.6931C23.2628 21.0229 22.9982 20.2116 22.9982 19.224C22.9982 17.9894 23.4392 16.9665 24.3386 16.1728C25.2381 15.3792 26.4021 14.9735 27.866 14.9735C29.418 14.9735 30.6526 15.3792 31.5697 16.1728C32.5044 16.9665 32.963 18.0423 32.963 19.3827H29.2769C29.2769 18.2363 28.8007 17.672 27.8483 17.672C27.4603 17.672 27.1429 17.7954 26.8783 18.0423C26.6138 18.2892 26.5079 18.6243 26.5079 19.0653C26.5079 19.3827 26.649 19.6473 26.9312 19.8942C27.2134 20.1411 27.866 20.4762 28.8889 20.9171C30.388 21.4815 31.4462 22.0988 32.0811 22.769C32.716 23.4392 33.0159 24.3386 33.0159 25.4145C33.0159 26.6667 32.5397 27.6896 31.6049 28.448H31.5697Z" fill="white"/>
</g>
<defs>
<clipPath id="clip0_2020_322">
<rect width="40" height="40" fill="white"/>
</clipPath>
</defs>
</svg>
