<svg width="40" height="40" viewBox="0 0 40 40" fill="none" xmlns="http://www.w3.org/2000/svg">
<g clip-path="url(#clip0_2020_325)">
<path d="M36.2081 0H3.77425C1.69312 0 0 1.69312 0 3.77425V36.2081C0 38.2892 1.69312 39.9824 3.77425 39.9824H36.2081C38.2892 39.9824 39.9824 38.2892 39.9824 36.2081V3.77425C39.9824 1.69312 38.2892 0 36.2081 0ZM21.9048 30.6526C21.9048 34.4621 19.6649 36.1905 16.4198 36.1905C13.4744 36.1905 11.358 34.2152 10.4762 32.381L13.4744 30.5644C14.0564 31.5873 14.9206 32.381 16.1905 32.381C17.4603 32.381 18.0952 31.9048 18.0952 30.0705V18.0952H21.9048V30.6526ZM30.1587 36.1905C26.7901 36.1905 24.8677 34.4974 23.8095 32.381L26.6667 30.4762C27.4427 31.746 28.2892 32.963 30.0882 32.963C31.5873 32.963 32.381 32.2046 32.381 31.164C32.381 29.9295 31.5697 29.4709 29.9118 28.7478L29.0123 28.3598C26.3845 27.2487 24.6384 25.8377 24.6384 22.8924C24.6384 20.1764 26.7196 18.0952 29.9647 18.0952C32.2751 18.0952 33.933 18.9065 35.1323 21.0053L32.3104 22.8219C31.6931 21.7108 31.0229 21.2698 29.9647 21.2698C28.9065 21.2698 28.2363 21.94 28.2363 22.8219C28.2363 23.9153 28.9065 24.3563 30.4762 25.0265L31.3757 25.4145C34.4621 26.7372 36.2081 28.0776 36.2081 31.1287C36.2081 34.3915 33.6332 36.1905 30.194 36.1905H30.1587Z" fill="white"/>
</g>
<defs>
<clipPath id="clip0_2020_325">
<rect width="40" height="40" fill="white"/>
</clipPath>
</defs>
</svg>
