<svg width="40" height="40" viewBox="0 0 40 40" fill="none" xmlns="http://www.w3.org/2000/svg">
<g clip-path="url(#clip0_2020_321)">
<path d="M0 3.77425V36.2081C0 38.2892 1.69312 39.9824 3.77425 39.9824H36.2081C38.2892 39.9824 39.9824 38.2892 39.9824 36.2081V3.77425C39.9824 1.69312 38.2892 0 36.2081 0H3.77425C1.69312 0 0 1.69312 0 3.77425ZM19.5944 29.3298L18.5714 25.4497H13.351L12.328 29.3298H8.2716L14.1975 10.3704H17.7072L23.6684 29.3298H19.5767H19.5944ZM29.1358 29.3298H25.4321V15.2381H29.1358V29.3298ZM28.7302 12.9982C28.3774 13.3686 27.8836 13.5626 27.2663 13.5626C26.649 13.5626 26.1552 13.3686 25.8025 12.9982C25.4497 12.6279 25.2557 12.1517 25.2557 11.5873C25.2557 11.0229 25.4321 10.5467 25.8025 10.1764C26.1728 9.806 26.649 9.62963 27.2663 9.62963C27.8836 9.62963 28.3598 9.806 28.7302 10.1764C29.1005 10.5467 29.2769 11.0053 29.2769 11.5873C29.2769 12.1517 29.1005 12.6279 28.7302 12.9982Z" fill="white"/>
<path d="M14.1799 22.2575H17.7248L15.9612 15.5026L14.1975 22.2575H14.1799Z" fill="white"/>
</g>
<defs>
<clipPath id="clip0_2020_321">
<rect width="40" height="40" fill="white"/>
</clipPath>
</defs>
</svg>
