<svg width="40" height="40" viewBox="0 0 40 40" fill="none" xmlns="http://www.w3.org/2000/svg">
<path d="M14.6737 16.9312C14.8148 16.6843 14.9736 16.455 15.1323 16.2081C14.7266 16.2963 14.3386 16.4021 13.9683 16.5256C14.0564 16.8959 14.1623 17.2839 14.2681 17.6719C14.3915 17.425 14.5326 17.1781 14.6737 16.9312Z" fill="white"/>
<path d="M22.4162 15.7848C21.6578 15.6966 20.8465 15.6614 20 15.6614C19.1534 15.6614 18.3774 15.7143 17.5838 15.8025C17.1252 16.4374 16.6667 17.1076 16.2257 17.8483C15.8201 18.5538 15.4497 19.2945 15.1323 20.0176C15.4497 20.7407 15.8201 21.4815 16.2257 22.187C16.649 22.9277 17.1076 23.5979 17.5838 24.2328C18.3421 24.321 19.1534 24.3563 20 24.3563C20.8465 24.3563 21.6226 24.3034 22.4162 24.2152C22.8748 23.5802 23.3333 22.9277 23.7742 22.187C24.1799 21.4815 24.5503 20.7407 24.8677 20.0176C24.5503 19.2945 24.1799 18.5538 23.7742 17.8483C23.351 17.1076 22.8924 16.4374 22.4162 15.8025V15.7848ZM20 22.0459C18.8712 22.0459 17.9541 21.1287 17.9541 20C17.9541 18.8713 18.8712 17.9541 20 17.9541C21.1287 17.9541 22.0458 18.8713 22.0458 20C22.0458 21.1287 21.1287 22.0459 20 22.0459Z" fill="white"/>
<path d="M14.6737 23.0688C14.5326 22.8219 14.4092 22.5749 14.2681 22.328C14.1446 22.716 14.0564 23.104 13.9683 23.4744C14.3386 23.5979 14.7266 23.7037 15.1323 23.7919C14.9736 23.545 14.8148 23.3157 14.6737 23.0688Z" fill="white"/>
<path d="M25.3087 23.0688C25.1676 23.3157 25.0088 23.545 24.8501 23.7919C25.2557 23.7037 25.6437 23.5979 26.0141 23.4744C25.9259 23.104 25.8201 22.716 25.7143 22.328C25.5908 22.5749 25.4497 22.8219 25.3087 23.0688Z" fill="white"/>
<path d="M25.3087 16.9312C25.4497 17.1781 25.5732 17.425 25.7143 17.6719C25.8378 17.2839 25.9259 16.8959 26.0141 16.5256C25.6437 16.4021 25.2557 16.2963 24.8501 16.2081C25.0088 16.455 25.1676 16.6843 25.3087 16.9312Z" fill="white"/>
<path d="M12.1164 17.2487C10.4762 18.06 9.50616 19.0829 9.50616 19.9824C9.50616 20.8818 10.5115 21.9224 12.2928 22.7866C12.5044 21.8695 12.8042 20.9347 13.1922 19.9824C12.8042 19.0123 12.5044 18.0776 12.2928 17.1605C12.2399 17.1958 12.1693 17.2134 12.1164 17.231V17.2487Z" fill="white"/>
<path d="M20.8289 13.8801C20.5467 13.5803 20.2822 13.3157 20 13.0688C19.7178 13.3157 19.4533 13.5803 19.1711 13.8801C19.4533 13.8801 19.7178 13.8624 20 13.8624C20.2822 13.8624 20.5467 13.8624 20.8289 13.8801Z" fill="white"/>
<path d="M36.2081 0H3.77425C1.69312 0 0 1.69312 0 3.77425V36.2081C0 38.2892 1.69312 39.9824 3.77425 39.9824H36.2081C38.2892 39.9824 39.9824 38.2892 39.9824 36.2081V3.77425C39.9824 1.69312 38.2892 0 36.2081 0ZM28.0423 24.6384C28.3598 27.4427 27.7601 29.7178 26.1552 30.6349C25.6437 30.9347 25.0617 31.0758 24.4444 31.0758C23.1041 31.0758 21.5697 30.4056 20.0176 29.2593C18.4656 30.4056 16.9312 31.0758 15.5908 31.0758C14.9559 31.0758 14.3915 30.9347 13.8801 30.6349C12.2751 29.7002 11.6578 27.4427 11.9929 24.6384C9.40035 23.5097 7.7425 21.8519 7.7425 20C7.7425 18.1481 9.40035 16.4903 11.9929 15.3616C11.6755 12.5573 12.2751 10.2822 13.8801 9.36508C14.3915 9.06525 14.9735 8.92416 15.5908 8.92416C16.9312 8.92416 18.4656 9.59436 20.0176 10.7407C21.5697 9.59436 23.1041 8.92416 24.4444 8.92416C25.0794 8.92416 25.6437 9.06525 26.1552 9.36508C27.7601 10.2998 28.3774 12.5573 28.0423 15.3616C30.6349 16.4903 32.2928 18.1481 32.2928 20C32.2928 21.8519 30.6349 23.5097 28.0423 24.6384Z" fill="white"/>
<path d="M13.7037 14.7266C14.6032 14.4621 15.5732 14.2328 16.6138 14.0917C17.2487 13.2804 17.9189 12.5573 18.5891 11.9224C17.4427 11.1288 16.3845 10.7055 15.5908 10.7055C15.2734 10.7055 14.9912 10.776 14.7619 10.8995C13.9859 11.358 13.5803 12.7161 13.6861 14.5326C13.6861 14.6032 13.6861 14.6561 13.7037 14.7266Z" fill="white"/>
<path d="M27.7072 17.1958C27.4956 18.0952 27.1957 19.0476 26.8077 20C27.1957 20.97 27.4956 21.9048 27.7072 22.8219C27.7601 22.7866 27.8307 22.769 27.8836 22.7513C29.5238 21.94 30.4938 20.9171 30.4938 20.0176C30.4938 19.1182 29.4885 18.0776 27.7072 17.2134V17.1958Z" fill="white"/>
<path d="M26.2963 25.2557C25.3968 25.5203 24.4268 25.7496 23.3863 25.8907C22.7513 26.7019 22.0811 27.425 21.4109 28.06C22.5573 28.8536 23.6155 29.2769 24.4092 29.2769C24.7266 29.2769 25.0088 29.2064 25.2381 29.0829C26.0141 28.6243 26.4198 27.284 26.3139 25.4497C26.3139 25.3792 26.3139 25.3263 26.2963 25.2557Z" fill="white"/>
<path d="M25.2381 10.9171C25.0088 10.776 24.7443 10.7231 24.4092 10.7231C23.6155 10.7231 22.5573 11.1464 21.4109 11.94C22.0811 12.575 22.7513 13.2981 23.3863 14.1094C24.4268 14.2505 25.3968 14.4797 26.2963 14.7443C26.2963 14.6737 26.2963 14.6208 26.3139 14.5503C26.4198 12.7337 26.0318 11.3757 25.2381 10.9171Z" fill="white"/>
<path d="M19.1711 26.1199C19.4533 26.4198 19.7178 26.6843 20 26.9312C20.2822 26.6843 20.5467 26.4198 20.8289 26.1199C20.5467 26.1199 20.2822 26.1376 20 26.1376C19.7178 26.1376 19.4533 26.1376 19.1711 26.1199Z" fill="white"/>
<path d="M13.7037 25.2557C13.7037 25.2557 13.7037 25.3792 13.6861 25.4497C13.5802 27.2663 13.9682 28.6243 14.7619 29.0829C14.9912 29.224 15.2557 29.2769 15.5908 29.2769C16.3845 29.2769 17.4427 28.8536 18.5891 28.06C17.9189 27.425 17.2487 26.7019 16.6138 25.8907C15.5732 25.7496 14.6032 25.5203 13.7037 25.2557Z" fill="white"/>
</svg>
