<svg width="40" height="40" viewBox="0 0 40 40" fill="none" xmlns="http://www.w3.org/2000/svg">
<g clip-path="url(#clip0_2020_323)">
<path d="M36.2081 0H3.77425C1.69312 0 0 1.69312 0 3.77425V36.2081C0 38.2892 1.69312 39.9824 3.77425 39.9824H36.2081C38.2892 39.9824 39.9824 38.2892 39.9824 36.2081V3.77425C39.9824 1.69312 38.2892 0 36.2081 0ZM19.4885 28.06C19.4885 30 17.9012 31.5873 15.9612 31.5873C14.0212 31.5873 12.4339 30 12.4339 28.06C12.4339 26.1199 14.0212 24.5326 15.9612 24.5326H19.4885V28.06ZM19.4885 23.5273H15.9612C14.0212 23.5273 12.4339 21.94 12.4339 20C12.4339 18.06 14.0212 16.4727 15.9612 16.4727H19.4885V23.5273ZM19.4885 15.4674H15.9612C14.0212 15.4674 12.4339 13.8801 12.4339 11.94C12.4339 10 14.0212 8.4127 15.9612 8.4127H19.4885V15.4674ZM24.0212 23.5273C22.0811 23.5273 20.4938 21.94 20.4938 20C20.4938 18.06 22.0811 16.4727 24.0212 16.4727C25.9612 16.4727 27.5485 18.06 27.5485 20C27.5485 21.94 25.9612 23.5273 24.0212 23.5273ZM24.0212 15.4674H20.4938V8.4127H24.0212C25.9612 8.4127 27.5485 10 27.5485 11.94C27.5485 13.8801 25.9612 15.4674 24.0212 15.4674Z" fill="white"/>
</g>
<defs>
<clipPath id="clip0_2020_323">
<rect width="40" height="40" fill="white"/>
</clipPath>
</defs>
</svg>
