<svg width="40" height="40" viewBox="0 0 40 40" fill="none" xmlns="http://www.w3.org/2000/svg">
<g clip-path="url(#clip0_2020_327)">
<path d="M36.2081 0H3.77425C1.69312 0 0 1.69312 0 3.77425V36.2081C0 38.2892 1.69312 39.9824 3.77425 39.9824H36.2081C38.2892 39.9824 39.9824 38.2892 39.9824 36.2081V3.77425C39.9824 1.69312 38.2892 0 36.2081 0ZM23.8095 21.3757H19.0476V36.1905H15.2381V21.3757H10.4762V18.0952H23.8095V21.3757ZM24.8677 35.3439V31.3933C24.8677 31.3933 27.037 33.0159 29.6296 33.0159C32.2222 33.0159 32.1164 31.3227 32.1164 31.0935C32.1164 28.6243 24.7619 28.6243 24.7619 23.1746C24.7619 15.7496 35.4674 18.6772 35.4674 18.6772L35.3263 22.2046C35.3263 22.2046 33.5273 21.0053 31.4991 21.0053C29.4709 21.0053 28.7302 21.9753 28.7302 22.9982C28.7302 25.6614 36.1552 25.3968 36.1552 30.7584C36.1552 39.0123 24.8501 35.3439 24.8501 35.3439H24.8677Z" fill="white"/>
</g>
<defs>
<clipPath id="clip0_2020_327">
<rect width="40" height="40" fill="white"/>
</clipPath>
</defs>
</svg>
