<svg width="371" height="384" viewBox="0 0 371 384" fill="none" xmlns="http://www.w3.org/2000/svg">
<path d="M197.304 2.38253C206.721 0.156505 216.52 0.0948375 225.965 2.20216L309.797 20.9078C336.799 26.9329 356.873 49.6266 359.557 77.1624L369.996 184.249C371.299 197.616 368.364 211.054 361.606 222.66L302.575 324.051C293.335 339.921 277.723 351.058 259.71 354.628L122.33 381.859C94.8881 387.298 67.0935 374.283 53.699 349.723L8.30704 266.491C-0.761141 249.863 -1.99889 230.073 4.92679 212.445L63.9622 62.1823C71.634 42.6551 88.3895 28.1281 108.807 23.3017L197.304 2.38253Z" fill="url(#paint0_linear_2028_143)" fill-opacity="0.4"/>
<defs>
<linearGradient id="paint0_linear_2028_143" x1="174.529" y1="-1" x2="174.529" y2="391" gradientUnits="userSpaceOnUse">
<stop stop-color="#A2BAFF"/>
<stop offset="1" stop-color="#8393C2"/>
</linearGradient>
</defs>
</svg>
