<svg width="364" height="411" viewBox="0 0 364 411" fill="none" xmlns="http://www.w3.org/2000/svg">
<path d="M244.589 14.4508C228.025 1.04223 205.872 -3.2414 185.503 3.02521L110.026 26.2459C96.3177 30.4631 84.4235 39.1625 76.2512 50.9485L11.4241 144.441C3.3687 156.059 -0.613546 170.016 0.0990325 184.135L3.75079 256.491C4.50564 271.447 10.4814 285.665 20.6378 296.67L85.0514 366.465C93.799 375.943 105.206 382.558 117.778 385.44L221.171 409.15C240.059 413.481 259.891 409.022 275.107 397.022L316.723 364.203C328.055 355.266 336.033 342.762 339.364 328.72L361.766 234.278C364.533 222.612 363.967 210.403 360.134 199.043L323.791 91.3514C319.912 79.8577 312.846 69.7029 303.418 62.0707L244.589 14.4508Z" fill="url(#paint0_linear_2028_146)" fill-opacity="0.4"/>
<defs>
<linearGradient id="paint0_linear_2028_146" x1="182.5" y1="-7" x2="182.5" y2="416" gradientUnits="userSpaceOnUse">
<stop stop-color="#CE90DC"/>
<stop offset="1" stop-color="#A84BBD"/>
</linearGradient>
</defs>
</svg>
